<svg xmlns="http://www.w3.org/2000/svg" viewBox="0 0 24 24" width="24" height="24">
  <path d="M0 0h24v24H0z" fill="none"/>
  <path d="M20.84 18.32l-3.29-3.29c.36-.79.55-1.65.55-2.55C18.1 9.82 14.28 6 9.5 6S1.9 9.82 1.9 14.6c0 4.78 3.82 8.6 8.6 8.6 1.01 0 1.97-.15 2.88-.42l3.33 3.33c.32.32.74.48 1.17.48.45 0 .88-.17 1.21-.5.65-.65.65-1.71 0-2.36zM2.1 14.6c0-3.87 3.14-7 7-7s7 3.13 7 7-3.14 7-7 7-7-3.13-7-7zm3.89 1.63l-1.52-.51-.48 1.45 2 1.1.98-.49-.98-.55zm3.98-1.11l-2.3 2.3-1.55-1.56-.83 1.68 1.17.67.78-.39v-2.7zm2.55 2.54l-1.72 1.72-1.35-.67-.55 1.39 1.9.94.72-.37v-2.01zm2.17 1.52l-1.17 1.17-1.18-.39-.76 1.24 1.01.76.65-.32V20.3z"/>
</svg>
